<svg xmlns="http://www.w3.org/2000/svg" viewBox="0 0 141.46 19.9"><defs><style>.cls-1{fill:#cc092f;}.cls-2{fill:#fff;}</style></defs><g id="Layer_2" data-name="Layer 2"><g id="Layer_1-2" data-name="Layer 1"><path d="M31.59,14H27.91V5.57h3.58a1.46,1.46,0,1,1,0,2.91H27.4v2.45h4.19a1.56,1.56,0,0,1,1.73,1.57c0,1-.64,1.54-1.73,1.54M33.66,9.6A3,3,0,0,0,36,6.53c0-1.79-1.3-3.41-3.86-3.41h-7v13.4h7.27c2.56,0,3.9-1.61,3.9-3.62a3.25,3.25,0,0,0-2.57-3.3m10.92-.36H41.5v2.51h2.18l2.63,4.77h3.27l-3-5.11a3.83,3.83,0,0,0,2.93-4m0,0A4.16,4.16,0,0,0,45,3.12H38.74v13.4h2.85V5.63h3a1.82,1.82,0,1,1,0,3.61m26.61,2.49L73.28,6l2.09,5.76Zm.3-8.61-5.18,13.4h3.25l.85-2.27h5.74L77,16.52h3.25L75.07,3.12ZM88,14H85.55V5.63H88a3.92,3.92,0,0,1,4.2,4.2A4,4,0,0,1,88,14M88,3.12H82.7v13.4H88c4.2,0,7.11-2.66,7.11-6.69S92.18,3.12,88,3.12m50.33,0L134.8,8.79l-3.52-5.68h-3.15V16.52H131V7.76l3.07,4.67a.9.9,0,0,0,1.24.25,1,1,0,0,0,.25-.25l3.07-4.67v8.76h2.85V3.11Z"/><path id="a" d="M58.55,14.15a4.3,4.3,0,0,1-4.29-4.3h0a4.29,4.29,0,1,1,4.29,4.3m0-11.36a7.06,7.06,0,1,0,7.06,7.06,7.06,7.06,0,0,0-7.06-7.06"/><path d="M107.93,11.93a4.29,4.29,0,1,1,0-4.19l2-2a7.07,7.07,0,1,0,0,8.19Z"/><path id="a-2" data-name="a" d="M119.05,14.15a4.31,4.31,0,0,1-4.3-4.3h0a4.3,4.3,0,1,1,4.3,4.3m0-11.36a7.06,7.06,0,1,0,7.06,7.06,7.07,7.07,0,0,0-7.06-7.06"/><circle class="cls-1" cx="9.95" cy="9.95" r="9.95"/><path class="cls-2" d="M18.72,12.64a3.42,3.42,0,0,0-3.23.33l-.49.3a2.92,2.92,0,0,1-1.39.6c-.42,0-.83-.12-1-.93-.27-1.27-.94-4.39-1.23-5.94-.17-.91-.27-1.4-.36-1.73-.17-.58-.49-.9-.93-.95H9.82c-.45,0-.76.37-.93.95-.1.33-.19.82-.36,1.73-.29,1.55-1,4.67-1.23,5.94-.18.81-.59.93-1,.93a2.92,2.92,0,0,1-1.39-.6L4.41,13a3.42,3.42,0,0,0-3.23-.33c-.24.1-.49.2-.72.32a10,10,0,0,0,.59,1.43,5.32,5.32,0,0,1,.78-.32,2,2,0,0,1,1.18,0,5.51,5.51,0,0,1,1,.56,4.09,4.09,0,0,0,2.24.84,2.53,2.53,0,0,0,2.58-2.19c.23-1.08.75-3.5,1.08-5.16,0,0,.85,4.08,1.08,5.16a2.53,2.53,0,0,0,2.58,2.19,4.12,4.12,0,0,0,2.24-.84,5.22,5.22,0,0,1,1-.56,2,2,0,0,1,1.18,0,5.32,5.32,0,0,1,.78.32A8.92,8.92,0,0,0,19.43,13c-.23-.12-.47-.22-.71-.32"/></g></g></svg>