<?xml version="1.0" encoding="utf-8"?>
<!-- Generator: Adobe Illustrator 24.3.0, SVG Export Plug-In . SVG Version: 6.00 Build 0)  -->
<svg version="1.1" id="Layer_1" xmlns="http://www.w3.org/2000/svg" xmlns:xlink="http://www.w3.org/1999/xlink" x="0px" y="0px"
	 viewBox="0 0 481 553.3" style="enable-background:new 0 0 481 553.3;" xml:space="preserve">
<style type="text/css">
	.st0{fill:#FFFFFF;fill-opacity:0;}
	.st1{opacity:0.8;}
	.st2{stroke:#000000;stroke-miterlimit:10;}
	.st3{fill:#86C440;}
	.st4{fill:#34BDE5;}
	.st5{fill:#E97E24;}
	.st6{stroke:#000000;stroke-width:5;stroke-miterlimit:10;}
</style>
<rect x="0.5" y="0.5" class="st0" width="480" height="552.3"/>
<g class="st1">
	<path class="st2" d="M103.4,465.2H89.1v15.4h-8.2v-37.5h8.2V458h14.3v-14.9h8.2v37.5h-8.2V465.2z"/>
</g>
<g class="st1">
	<path class="st2" d="M142.9,480.6l-2.7-8.9h-12.5l-2.7,8.9h-8.3l12.4-37.5h10.1l12.2,37.5H142.9z M134.1,450.5h-0.3l-4.1,14.2h8.6
		L134.1,450.5z"/>
</g>
<g class="st1">
	<path class="st2" d="M170.2,481.2c-2.4,0-4.7-0.4-6.9-1.2c-2-0.8-3.8-2-5.2-3.6c-1.5-1.7-2.6-3.8-3.3-6c-0.8-2.7-1.2-5.5-1.2-8.4
		c0-2.8,0.4-5.7,1.2-8.4c0.7-2.3,1.8-4.4,3.3-6.2c1.4-1.7,3.2-3,5.2-3.8c2.2-0.9,4.5-1.3,6.9-1.3c3-0.1,6,0.6,8.6,2.1
		c2.4,1.6,4.3,4,5.4,6.7l-7,3.7c-0.4-1.4-1.2-2.8-2.3-3.8c-1.3-1-3-1.5-4.6-1.4c-2.2-0.1-4.3,0.8-5.8,2.4s-2.2,3.8-2.2,6.8v6
		c0,3,0.7,5.2,2.2,6.8c1.5,1.6,3.6,2.4,5.8,2.3c1.8,0.1,3.5-0.5,4.8-1.6c1.2-1.1,2.1-2.5,2.7-4l6.7,3.9c-1.2,2.7-3.1,5-5.5,6.6
		C176.2,480.5,173.2,481.3,170.2,481.2z"/>
	<path class="st2" d="M203.1,464.3l-4.9,5.9v10.4H190v-37.5h8.2V461h0.3l5.3-7.3l8.4-10.6h9.2l-12.6,15.4l13.8,22.1H213L203.1,464.3
		z"/>
</g>
<g class="st1">
	<path class="st2" d="M250.5,480.6l-2.7-8.9h-12.5l-2.7,8.9h-8.3l12.4-37.5h10.1l12.2,37.5H250.5z M241.7,450.5h-0.3l-4.1,14.2h8.6
		L241.7,450.5z"/>
</g>
<g class="st1">
	<path class="st2" d="M276.4,450.3v30.3h-8.2v-30.3H258V443h28.5v7.3H276.4z"/>
	<path class="st2" d="M314.6,465.2h-14.3v15.4h-8.2v-37.5h8.2V458h14.3v-14.9h8.2v37.5h-8.2V465.2z"/>
	<path class="st2" d="M346.1,481.2c-2.3,0-4.6-0.4-6.8-1.2c-2-0.8-3.8-2.1-5.2-3.7c-1.5-1.8-2.6-3.8-3.3-6.1
		c-1.6-5.5-1.6-11.3,0-16.8c0.7-2.2,1.8-4.3,3.3-6.1c1.4-1.6,3.2-2.9,5.2-3.7c4.4-1.7,9.2-1.7,13.5,0c2,0.8,3.8,2.1,5.2,3.7
		c1.5,1.8,2.7,3.8,3.3,6.1c1.6,5.5,1.6,11.3,0,16.8c-0.7,2.2-1.8,4.3-3.3,6.1c-1.4,1.6-3.2,2.9-5.2,3.7
		C350.7,480.9,348.4,481.3,346.1,481.2z M346.1,474c2.2,0.1,4.3-0.8,5.8-2.4c1.4-1.6,2.1-3.9,2.1-6.9V459c0-3-0.7-5.3-2.1-6.9
		c-3.1-3.2-8.3-3.2-11.5-0.1l-0.1,0.1c-1.4,1.6-2.1,3.9-2.1,6.9v5.6c0,3,0.7,5.3,2.1,6.9C341.8,473.2,343.9,474.1,346.1,474
		L346.1,474z"/>
	<path class="st2" d="M380.9,462.9l-3.6-7.5h-0.2v25.3h-7.7v-37.5h8.9l10.3,17.7l3.6,7.5h0.2v-25.3h7.7v37.5h-8.9L380.9,462.9z"/>
</g>
<polygon class="st3" points="84,349.3 209.7,350 237,311.3 150.6,311.2 181.7,257.7 161.6,215.5 "/>
<polygon class="st4" points="399.7,349.3 244.1,350 271.6,311.3 333.1,311.2 297.1,249.1 346.7,257.3 "/>
<polygon class="st5" points="241.7,76 178.3,185.2 198.4,228.3 241.7,153.1 280.2,219.8 329.9,228.3 "/>
<path class="st6" d="M128.7,380.4c-1-0.5-2.2-1-3.5-1.6c-1.5-0.6-3-1.1-4.6-1.5c-1.9-0.5-3.8-0.8-5.8-1.1c-2.4-0.3-4.8-0.5-7.1-0.5
	c-2.8,0-5.7,0.2-8.5,0.5c-2.2,0.3-4.3,0.8-6.3,1.7c-1.5,0.6-2.8,1.6-3.9,2.9c-0.9,1.2-1.4,2.7-1.4,4.2c0,1.3,0.4,2.6,1.3,3.6
	c1,1.1,2.1,2,3.4,2.7c1.6,0.9,3.3,1.6,5.1,2.1c1.9,0.6,4,1.2,6.2,1.8s4.4,1.1,6.8,1.7s4.6,1.2,6.8,1.9c2.1,0.6,4.2,1.4,6.2,2.2
	c1.8,0.7,3.5,1.7,5.1,2.9c1.4,1,2.6,2.3,3.4,3.8c0.9,1.5,1.3,3.2,1.3,4.9c0,1.8-0.4,3.6-1.2,5.3c-0.7,1.5-1.8,2.8-3.1,3.9
	c-1.4,1.1-2.9,2-4.6,2.7c-1.8,0.7-3.7,1.3-5.6,1.7c-2,0.4-4.1,0.7-6.1,0.9c-2.1,0.2-4.2,0.3-6.2,0.3c-4.3,0-8.5-0.3-12.7-1
	c-3.7-0.7-7.3-1.6-10.9-2.8v-6c3.5,2.1,7.3,3.6,11.3,4.4c4.1,0.8,8.3,1.2,12.5,1.2c2.9,0,5.7-0.2,8.5-0.5c2.3-0.3,4.6-0.9,6.8-1.8
	c1.7-0.7,3.2-1.7,4.4-3.1c1.1-1.3,1.6-3,1.6-4.7c0-1.4-0.4-2.8-1.3-3.9c-0.9-1.2-2.1-2.2-3.4-3c-1.6-0.9-3.3-1.7-5.1-2.2
	c-1.9-0.7-4-1.3-6.2-1.8s-4.4-1.1-6.7-1.6c-2.3-0.5-4.6-1.1-6.7-1.8s-4.2-1.3-6.2-2.1c-1.8-0.7-3.5-1.6-5.1-2.8
	c-1.4-1-2.5-2.2-3.4-3.7s-1.3-3.1-1.3-4.8c0-1.7,0.3-3.3,1-4.8c0.7-1.4,1.6-2.6,2.8-3.6c1.3-1.1,2.7-1.9,4.2-2.6
	c1.7-0.7,3.4-1.3,5.1-1.6c1.9-0.4,3.8-0.7,5.7-0.9c2-0.2,3.9-0.3,5.8-0.3c2.1,0,4.1,0.1,6,0.3s3.7,0.4,5.4,0.7s3.4,0.6,5.1,1
	s3.3,0.8,5,1.3L128.7,380.4z"/>
<polygon class="st6" points="197.9,426.3 197.9,400.1 149.6,400.1 149.6,426.3 144.7,426.3 144.7,372.4 149.6,372.4 149.6,395.6 
	197.9,395.6 197.9,372.4 202.8,372.4 202.8,426.3 "/>
<path class="st6" d="M329.8,387.9c0.1-1.9-0.3-3.9-1.2-5.6c-0.9-1.5-2.3-2.7-4-3.3c-2.3-0.9-4.7-1.4-7.2-1.6c-3-0.3-6.6-0.4-11-0.4
	h-16.7v21.6h16.6c4.3,0,8-0.1,11-0.4c2.5-0.1,4.9-0.7,7.3-1.5c1.7-0.6,3.1-1.8,4-3.3C329.5,391.7,329.9,389.8,329.8,387.9z
	 M289.7,403.2v23h-4.9v-53.9h26.9c3.5,0,7.1,0.3,10.6,1c2.6,0.5,5,1.5,7.2,2.9c1.8,1.2,3.2,2.9,4.1,4.8c0.9,2.1,1.4,4.5,1.3,6.8
	c0,4-1.1,7.2-3.2,9.7c-2.1,2.4-5.5,4.1-10.3,5l18.4,23.8h-6.2L316.3,403c-0.7,0-1.5,0.1-2.2,0.1s-1.5,0-2.4,0L289.7,403.2z"/>
<polygon class="st6" points="353,426.2 353,372.4 398,372.4 398,377 358.4,377 358.4,395.5 396,395.5 396,400 358.4,400 
	358.4,421.7 398,421.7 398,426.2 "/>
<path class="st2" d="M258.9,413.2h-28.7l-8.3,14.9h-10.1L245,370l32,58.2h-10.2L258.9,413.2z M254.8,404.6l-9.9-17.8l-10.4,17.8
	H254.8z"/>
</svg>
