<?xml version="1.0" encoding="utf-8"?>
<!-- Generator: Adobe Illustrator 26.0.3, SVG Export Plug-In . SVG Version: 6.00 Build 0)  -->
<svg version="1.1" id="Layer_1" xmlns="http://www.w3.org/2000/svg" xmlns:xlink="http://www.w3.org/1999/xlink" x="0px" y="0px"
	 viewBox="0 0 142.5 24.3" style="enable-background:new 0 0 142.5 24.3;" xml:space="preserve">
<style type="text/css">
	.st0{fill:#FFFFFF;}
	.st1{fill:#CC092F;}
</style>
<path class="st0" d="M31.8,16.1h-3.7V7.6h3.6c0.8-0.1,1.5,0.5,1.6,1.3c0.1,0.8-0.5,1.5-1.3,1.6c-0.1,0-0.2,0-0.2,0h-4.1V13h4.2
	c0.9-0.1,1.6,0.5,1.7,1.4c0,0.1,0,0.1,0,0.2C33.6,15.6,32.9,16.1,31.8,16.1 M33.9,11.7c1.4-0.3,2.4-1.6,2.3-3.1
	c0-1.8-1.3-3.4-3.9-3.4h-7v13.4h7.3c2.6,0,3.9-1.6,3.9-3.6C36.6,13.4,35.5,12,33.9,11.7 M44.9,11.3h-3.2v2.5h2.2l2.6,4.8h3.3l-3-5.1
	c1.8-0.4,3.1-2.1,2.9-4 M49.8,9.5c0.1-2.3-1.7-4.2-4-4.3c-0.2,0-0.3,0-0.5,0H39v13.4h2.8V7.7h3c1-0.1,1.9,0.6,2,1.6s-0.6,1.9-1.6,2
	c-0.2,0-0.3,0-0.5,0 M71.5,13.8l2.1-5.7l2.1,5.8L71.5,13.8z M71.8,5.2l-5.2,13.4h3.2l0.8-2.3h5.7l0.8,2.3h3.2L75.3,5.2H71.8z
	 M88.3,16.1h-2.4V7.7h2.4c2.2-0.2,4,1.5,4.2,3.6c0,0.2,0,0.4,0,0.6c0.1,2.2-1.6,4.1-3.8,4.2C88.5,16.1,88.4,16.1,88.3,16.1
	 M88.3,5.2H83v13.4h5.3c4.2,0,7.1-2.7,7.1-6.7S92.4,5.2,88.3,5.2 M138.6,5.2l-3.5,5.7l-3.5-5.7h-3.1v13.4h2.9V9.8l3.1,4.7
	c0.3,0.4,0.8,0.5,1.2,0.2c0.1-0.1,0.2-0.2,0.2-0.2l3.1-4.7v8.8h2.9V5.2L138.6,5.2z"/>
<path id="a" class="st0" d="M58.8,16.2c-2.4,0-4.3-1.9-4.3-4.3l0,0c0-2.4,1.9-4.3,4.3-4.3c2.4,0,4.3,1.9,4.3,4.3
	C63.1,14.3,61.2,16.2,58.8,16.2 M58.8,4.9c-3.9,0-7.1,3.2-7.1,7.1s3.2,7.1,7.1,7.1s7.1-3.2,7.1-7.1S62.7,4.9,58.8,4.9
	C58.8,4.9,58.8,4.9,58.8,4.9"/>
<path class="st0" d="M108.2,14c-1.2,2.1-3.8,2.8-5.8,1.6s-2.8-3.8-1.6-5.8s3.8-2.8,5.8-1.6c0.7,0.4,1.3,1,1.6,1.6l2-2
	c-2.3-3.2-6.7-3.9-9.9-1.7c-3.2,2.3-3.9,6.7-1.7,9.9s6.7,3.9,9.9,1.7c0.6-0.5,1.2-1,1.7-1.7L108.2,14z"/>
<path id="a-2" class="st0" d="M119.3,16.2c-2.4,0-4.3-1.9-4.3-4.3l0,0c0-2.4,1.9-4.3,4.3-4.3s4.3,1.9,4.3,4.3S121.7,16.2,119.3,16.2
	 M119.3,4.9c-3.9,0-7.1,3.2-7.1,7.1c0,3.9,3.2,7.1,7.1,7.1c3.9,0,7.1-3.2,7.1-7.1c0,0,0,0,0,0C126.4,8,123.2,4.9,119.3,4.9"/>
<circle class="st1" cx="10.2" cy="12" r="9.9"/>
<path class="st0" d="M19,14.7c-1.1-0.4-2.3-0.3-3.2,0.3l-0.5,0.3c-0.4,0.3-0.9,0.5-1.4,0.6c-0.4,0-0.8-0.1-1-0.9
	c-0.3-1.3-0.9-4.4-1.2-5.9c-0.2-0.9-0.3-1.4-0.4-1.7c-0.2-0.6-0.5-0.9-0.9-0.9h-0.3c-0.4,0-0.8,0.4-0.9,0.9C9,7.7,9,8.2,8.8,9.1
	c-0.3,1.5-1,4.7-1.2,5.9c-0.2,0.8-0.6,0.9-1,0.9c-0.5-0.1-1-0.3-1.4-0.6l-0.5-0.3c-1-0.6-2.2-0.8-3.2-0.3c-0.2,0.1-0.5,0.2-0.7,0.3
	c0.2,0.5,0.4,1,0.6,1.4c0.3-0.1,0.5-0.2,0.8-0.3c0.4-0.1,0.8-0.1,1.2,0c0.4,0.2,0.7,0.3,1,0.6c0.6,0.5,1.4,0.8,2.2,0.8
	c1.3,0,2.4-0.9,2.6-2.2c0.2-1.1,0.8-3.5,1.1-5.2c0,0,0.9,4.1,1.1,5.2c0.2,1.3,1.3,2.2,2.6,2.2c0.8-0.1,1.6-0.3,2.2-0.8
	c0.3-0.2,0.6-0.4,1-0.6c0.4-0.1,0.8-0.1,1.2,0c0.3,0.1,0.5,0.2,0.8,0.3c0.3-0.5,0.5-0.9,0.7-1.4C19.5,14.9,19.2,14.8,19,14.7"/>
</svg>
