<?xml version="1.0" encoding="utf-8"?>
<!-- Generator: Adobe Illustrator 26.0.3, SVG Export Plug-In . SVG Version: 6.00 Build 0)  -->
<svg version="1.1" id="Layer_1" xmlns="http://www.w3.org/2000/svg" xmlns:xlink="http://www.w3.org/1999/xlink" x="0px" y="0px"
	 viewBox="0 0 481 553.3" style="enable-background:new 0 0 481 553.3;" xml:space="preserve">
<style type="text/css">
	.st0{fill:#FFFFFF;fill-opacity:0;}
	.st1{fill:#86C440;}
	.st2{fill:#34BDE5;}
	.st3{fill:#E97E24;}
	.st4{stroke:#000000;stroke-width:5;stroke-miterlimit:10;}
	.st5{stroke:#000000;stroke-miterlimit:10;}
	.st6{fill:#474747;}
	.st7{fill:#1F70C1;}
	.st8{fill:#CC092F;}
	.st9{fill:#FFFFFF;}
</style>
<rect x="0.5" y="0.5" class="st0" width="480" height="552.3"/>
<polygon class="st1" points="65,320.3 190.7,321 218,282.3 131.6,282.2 162.7,228.7 142.6,186.5 "/>
<polygon class="st2" points="380.7,320.3 225.1,321 252.6,282.3 314.1,282.2 278.1,220.1 327.7,228.3 "/>
<polygon class="st3" points="222.7,47 159.3,156.2 179.4,199.3 222.7,124.1 261.2,190.8 310.9,199.3 "/>
<path class="st4" d="M109.7,351.4c-1-0.5-2.2-1-3.5-1.6c-1.5-0.6-3-1.1-4.6-1.5c-1.9-0.5-3.8-0.8-5.8-1.1c-2.4-0.3-4.8-0.5-7.1-0.5
	c-2.8,0-5.7,0.2-8.5,0.5c-2.2,0.3-4.3,0.8-6.3,1.7c-1.5,0.6-2.8,1.6-3.9,2.9c-0.9,1.2-1.4,2.7-1.4,4.2c0,1.3,0.4,2.6,1.3,3.6
	c1,1.1,2.1,2,3.4,2.7c1.6,0.9,3.3,1.6,5.1,2.1c1.9,0.6,4,1.2,6.2,1.8s4.4,1.1,6.8,1.7s4.6,1.2,6.8,1.9c2.1,0.6,4.2,1.4,6.2,2.2
	c1.8,0.7,3.5,1.7,5.1,2.9c1.4,1,2.6,2.3,3.4,3.8c0.9,1.5,1.3,3.2,1.3,4.9c0,1.8-0.4,3.6-1.2,5.3c-0.7,1.5-1.8,2.8-3.1,3.9
	c-1.4,1.1-2.9,2-4.6,2.7c-1.8,0.7-3.7,1.3-5.6,1.7c-2,0.4-4.1,0.7-6.1,0.9c-2.1,0.2-4.2,0.3-6.2,0.3c-4.3,0-8.5-0.3-12.7-1
	c-3.7-0.7-7.3-1.6-10.9-2.8v-6c3.5,2.1,7.3,3.6,11.3,4.4c4.1,0.8,8.3,1.2,12.5,1.2c2.9,0,5.7-0.2,8.5-0.5c2.3-0.3,4.6-0.9,6.8-1.8
	c1.7-0.7,3.2-1.7,4.4-3.1c1.1-1.3,1.6-3,1.6-4.7c0-1.4-0.4-2.8-1.3-3.9c-0.9-1.2-2.1-2.2-3.4-3c-1.6-0.9-3.3-1.7-5.1-2.2
	c-1.9-0.7-4-1.3-6.2-1.8s-4.4-1.1-6.7-1.6c-2.3-0.5-4.6-1.1-6.7-1.8s-4.2-1.3-6.2-2.1c-1.8-0.7-3.5-1.6-5.1-2.8
	c-1.4-1-2.5-2.2-3.4-3.7s-1.3-3.1-1.3-4.8c0-1.7,0.3-3.3,1-4.8c0.7-1.4,1.6-2.6,2.8-3.6c1.3-1.1,2.7-1.9,4.2-2.6
	c1.7-0.7,3.4-1.3,5.1-1.6c1.9-0.4,3.8-0.7,5.7-0.9c2-0.2,3.9-0.3,5.8-0.3c2.1,0,4.1,0.1,6,0.3s3.7,0.4,5.4,0.7s3.4,0.6,5.1,1
	s3.3,0.8,5,1.3L109.7,351.4z"/>
<polygon class="st4" points="178.9,397.3 178.9,371.1 130.6,371.1 130.6,397.3 125.7,397.3 125.7,343.4 130.6,343.4 130.6,366.6 
	178.9,366.6 178.9,343.4 183.8,343.4 183.8,397.3 "/>
<path class="st4" d="M310.8,358.9c0.1-1.9-0.3-3.9-1.2-5.6c-0.9-1.5-2.3-2.7-4-3.3c-2.3-0.9-4.7-1.4-7.2-1.6c-3-0.3-6.6-0.4-11-0.4
	h-16.7v21.6h16.6c4.3,0,8-0.1,11-0.4c2.5-0.1,4.9-0.7,7.3-1.5c1.7-0.6,3.1-1.8,4-3.3C310.5,362.7,310.9,360.8,310.8,358.9z
	 M270.7,374.2v23h-4.9v-53.9h26.9c3.5,0,7.1,0.3,10.6,1c2.6,0.5,5,1.5,7.2,2.9c1.8,1.2,3.2,2.9,4.1,4.8c0.9,2.1,1.4,4.5,1.3,6.8
	c0,4-1.1,7.2-3.2,9.7c-2.1,2.4-5.5,4.1-10.3,5l18.4,23.8h-6.2L297.3,374c-0.7,0-1.5,0.1-2.2,0.1s-1.5,0-2.4,0L270.7,374.2z"/>
<polygon class="st4" points="334,397.2 334,343.4 379,343.4 379,348 339.4,348 339.4,366.5 377,366.5 377,371 339.4,371 
	339.4,392.7 379,392.7 379,397.2 "/>
<path class="st5" d="M239.9,384.2h-28.7l-8.3,14.9h-10.1L226,341l32,58.2h-10.2L239.9,384.2z M235.8,375.6l-9.9-17.8l-10.4,17.8
	H235.8z"/>
<g>
	<path class="st6" d="M89.4,442.8h-6.6v-13.6H67.9v13.6h-6.6v-33.4h6.6v13.5h14.9v-13.5h6.6V442.8z"/>
	<path class="st6" d="M114.5,436.3h-11.1l-2.7,6.5h-6.5l15.1-34.7h0.4l15.1,34.7h-7.6L114.5,436.3z M112.3,430.8l-3.2-8.1l-3.4,8.1
		H112.3z"/>
	<path class="st6" d="M148.3,442.1c-1.8,0.7-3.9,1-6,1c-3.5,0-6.5-0.8-9.1-2.3c-2.6-1.5-4.5-3.5-5.9-6.1c-1.4-2.6-2-5.4-2-8.4
		c0-3.4,0.7-6.3,2-9c1.4-2.6,3.3-4.7,5.7-6.1c2.4-1.5,5.3-2.2,8.5-2.2c2,0,3.9,0.3,5.6,0.8c1.7,0.5,3.2,1.2,4.5,2l-2.6,6.2
		c-2.4-1.8-4.8-2.7-7.3-2.7c-1.7,0-3.3,0.5-4.8,1.4c-1.5,0.9-2.7,2.2-3.5,3.8c-0.9,1.6-1.3,3.4-1.3,5.4c0,2.1,0.4,4,1.2,5.6
		c0.8,1.6,2,2.9,3.5,3.8c1.5,0.9,3.3,1.4,5.3,1.4c1.6,0,3.1-0.3,4.4-0.8c1.3-0.5,2.3-1.2,3.1-1.9l2.7,5.9
		C151.5,440.7,150.1,441.4,148.3,442.1z"/>
	<path class="st6" d="M165.4,423l1-1.3l10.9-12.3h8.5l-13.8,15l13.8,18.4h-8.3l-10.3-14.2l-1.6,1.6v12.6h-6.7v-33.4h6.7v11.9
		L165.4,423z"/>
	<path class="st6" d="M197.5,429.7v5.5h-8.5v-5.5H197.5z"/>
	<path class="st6" d="M221.2,436.3h-11.1l-2.7,6.5h-6.5l15.1-34.7h0.4l15.1,34.7h-7.6L221.2,436.3z M219,430.8l-3.2-8.1l-3.4,8.1
		H219z"/>
	<path class="st6" d="M242.9,429.7v5.5h-8.5v-5.5H242.9z"/>
	<path class="st6" d="M270.3,409.5v6.3h-8.1v27h-6.6v-27h-7.8v-6.3H270.3z"/>
	<path class="st6" d="M304.7,442.8h-6.6v-13.6h-14.9v13.6h-6.6v-33.4h6.6v13.5h14.9v-13.5h6.6V442.8z"/>
	<path class="st6" d="M313.6,417.7c1.5-2.6,3.6-4.7,6.2-6.3c2.6-1.6,5.4-2.3,8.5-2.3c3.1,0,5.9,0.8,8.5,2.3c2.6,1.6,4.7,3.6,6.3,6.3
		c1.6,2.6,2.3,5.5,2.3,8.5c0,3.1-0.8,5.9-2.3,8.5c-1.6,2.6-3.6,4.7-6.3,6.2c-2.6,1.5-5.4,2.3-8.5,2.3c-3.1,0-5.9-0.8-8.5-2.3
		c-2.6-1.5-4.7-3.6-6.2-6.2c-1.5-2.6-2.3-5.4-2.3-8.5C311.3,423.2,312,420.3,313.6,417.7z M319.5,431.5c0.9,1.6,2.2,2.9,3.8,3.9
		c1.6,1,3.3,1.4,5.3,1.4c1.9,0,3.6-0.5,5.1-1.4c1.5-1,2.7-2.2,3.6-3.9c0.9-1.6,1.3-3.4,1.3-5.4c0-2-0.5-3.8-1.4-5.4
		c-0.9-1.6-2.1-2.9-3.7-3.9c-1.6-1-3.3-1.4-5.2-1.4c-1.9,0-3.6,0.5-5.2,1.4c-1.6,1-2.8,2.2-3.7,3.9c-0.9,1.6-1.4,3.4-1.4,5.4
		C318.1,428.1,318.5,429.9,319.5,431.5z"/>
	<path class="st6" d="M382,409.5v34.7h-0.2l-23.3-21.1l0.1,19.7h-6.7v-34.7h0.3l23.3,21.4l-0.1-20.1H382z"/>
</g>
<path class="st7" d="M161.2,481.5v1.5h10.3v-1.5H161.2z M173,481.5v1.5h14.7c0,0-1.5-1.5-3.5-1.5H173z M190.6,481.5v1.5h8.9
	l-0.5-1.5H190.6z M205.9,481.5l-0.5,1.5h8.8v-1.5H205.9z M161.2,484.3v1.5h10.3v-1.5H161.2z M173,484.3v1.5h16.4
	c0,0-0.2-1.1-0.5-1.5C188.9,484.3,173,484.3,173,484.3z M190.6,484.3v1.5h9.9l-0.5-1.5C200,484.3,190.6,484.3,190.6,484.3z
	 M204.8,484.3l-0.5,1.5h9.8v-1.5H204.8z M164.1,487.1v1.5h4.5v-1.5C168.6,487.1,164.1,487.1,164.1,487.1z M175.9,487.1v1.5h4.5v-1.5
	C180.4,487.1,175.9,487.1,175.9,487.1z M184.8,487.1v1.5h4.5c0,0,0.3-0.8,0.3-1.5C189.5,487.1,184.8,487.1,184.8,487.1z
	 M193.5,487.1v1.5h7.9l-0.5-1.5C200.9,487.1,193.5,487.1,193.5,487.1z M203.8,487.1l-0.5,1.5h8v-1.5
	C211.3,487.1,203.8,487.1,203.8,487.1z M164.1,490v1.5h4.5V490H164.1L164.1,490z M175.9,490v1.5h11.4c0,0,1-0.7,1.3-1.5H175.9z
	 M193.5,490v1.5h4.5v-0.8l0.3,0.8h8.2l0.3-0.8v0.8h4.5V490h-8.4l-0.4,1.2L202,490H193.5z M164.1,492.8v1.5h4.5v-1.5H164.1z
	 M175.9,492.8v1.5h12.7c-0.3-0.7-1.3-1.5-1.3-1.5H175.9z M193.5,492.8v1.5h4.5v-1.5H193.5z M198.8,492.8l0.5,1.5h6.1l0.5-1.5H198.8z
	 M206.8,492.8v1.5h4.5v-1.5H206.8z M164.1,495.6v1.5h4.5v-1.5H164.1z M175.9,495.6v1.5h4.5v-1.5H175.9z M184.8,495.6v1.5h4.8
	c0-0.7-0.3-1.5-0.3-1.5H184.8L184.8,495.6z M193.5,495.6v1.5h4.5v-1.5H193.5z M199.8,495.6l0.5,1.5h4.1l0.5-1.5H199.8z M206.8,495.6
	v1.5h4.5v-1.5H206.8z M161.2,498.4v1.5h10.3v-1.5H161.2z M173,498.4v1.5h15.9c0.3-0.3,0.5-1.5,0.5-1.5H173L173,498.4z M190.7,498.4
	v1.5h7.4v-1.5H190.7z M200.9,498.4l0.5,1.5h2.1l0.5-1.5H200.9z M206.8,498.4v1.5h7.4v-1.5H206.8z M161.2,501.3v1.5h10.3v-1.5H161.2z
	 M173,501.3v1.5h11.2c2,0,3.5-1.5,3.5-1.5H173z M190.7,501.3v1.5h7.4v-1.5H190.7z M201.9,501.3l0.5,1.4l0.1,0l0.5-1.5H201.9z
	 M206.8,501.3v1.5h7.4v-1.5H206.8z"/>
<g id="Layer_2_00000182521977940681171500000011039304593267441038_">
	<g id="Layer_1-2">
		<path d="M265.1,496.4h-3.9v-9h3.8c0.9-0.1,1.6,0.6,1.7,1.4c0.1,0.9-0.6,1.6-1.4,1.7c-0.1,0-0.2,0-0.3,0h-4.3v2.6h4.4
			c0.9-0.1,1.7,0.6,1.8,1.5c0,0.1,0,0.1,0,0.2C267,495.9,266.3,496.4,265.1,496.4 M267.3,491.7c1.5-0.3,2.6-1.7,2.5-3.3
			c0-1.9-1.4-3.6-4.1-3.6h-7.4v14.2h7.7c2.7,0,4.1-1.7,4.1-3.8C270.2,493.6,269,492.1,267.3,491.7 M279,491.3h-3.4v2.7h2.3l2.8,5.1
			h3.5l-3.2-5.4c1.9-0.5,3.3-2.3,3.1-4.2 M284.2,489.4c0.1-2.4-1.8-4.5-4.3-4.6c-0.2,0-0.4,0-0.5,0h-6.6v14.2h3v-11.6h3.2
			c1.1-0.1,2,0.6,2.2,1.7c0.1,1.1-0.6,2-1.7,2.2c-0.2,0-0.3,0-0.5,0 M307.2,494l2.2-6.1l2.2,6.1L307.2,494z M307.5,484.8l-5.5,14.2
			h3.5l0.9-2.4h6.1l0.9,2.4h3.5l-5.5-14.2H307.5z M325,496.4h-2.6v-8.9h2.6c2.3-0.2,4.3,1.5,4.5,3.8c0,0.2,0,0.4,0,0.6
			c0.1,2.3-1.7,4.3-4.1,4.4C325.3,496.4,325.2,496.4,325,496.4 M325,484.8h-5.6v14.2h5.6c4.5,0,7.5-2.8,7.5-7.1
			C332.6,487.7,329.5,484.8,325,484.8 M378.5,484.8l-3.7,6l-3.7-6h-3.3v14.2h3v-9.3l3.3,5c0.3,0.4,0.9,0.6,1.3,0.3
			c0.1-0.1,0.2-0.2,0.3-0.3l3.3-5v9.3h3v-14.2L378.5,484.8z"/>
		<path id="a" d="M293.8,496.6c-2.5,0-4.6-2-4.6-4.6l0,0c0-2.5,2-4.6,4.6-4.5s4.6,2,4.5,4.6C298.3,494.5,296.3,496.6,293.8,496.6
			 M293.8,484.5c-4.1,0-7.5,3.4-7.5,7.5s3.4,7.5,7.5,7.5c4.1,0,7.5-3.4,7.5-7.5C301.2,487.9,297.9,484.5,293.8,484.5
			C293.8,484.5,293.8,484.5,293.8,484.5"/>
		<path d="M346.2,494.2c-1.2,2.2-4,3-6.2,1.8c-2.2-1.2-3-4-1.8-6.2c1.2-2.2,4-3,6.2-1.8c0.7,0.4,1.3,1,1.8,1.8l2.1-2.1
			c-2.4-3.4-7.1-4.2-10.5-1.8c-3.4,2.4-4.2,7.1-1.8,10.5c2.4,3.4,7.1,4.2,10.5,1.8c0.7-0.5,1.3-1.1,1.8-1.8L346.2,494.2z"/>
		<path id="a-2" d="M358,496.6c-2.5,0-4.6-2-4.6-4.6l0,0c0-2.5,2-4.6,4.6-4.6c2.5,0,4.6,2,4.6,4.6
			C362.6,494.5,360.5,496.6,358,496.6 M358,484.5c-4.1,0-7.5,3.4-7.5,7.5s3.4,7.5,7.5,7.5c4.1,0,7.5-3.4,7.5-7.5c0,0,0,0,0,0
			C365.5,487.9,362.1,484.5,358,484.5"/>
		<circle class="st8" cx="242.2" cy="492.1" r="10.6"/>
		<path class="st9" d="M251.5,495c-1.1-0.5-2.4-0.3-3.4,0.4l-0.5,0.3c-0.4,0.3-0.9,0.6-1.5,0.6c-0.4,0-0.9-0.1-1.1-1
			c-0.3-1.3-1-4.7-1.3-6.3c-0.2-1-0.3-1.5-0.4-1.8c-0.2-0.6-0.5-1-1-1H242c-0.5,0-0.8,0.4-1,1c-0.1,0.4-0.2,0.9-0.4,1.8
			c-0.3,1.6-1.1,5-1.3,6.3c-0.2,0.9-0.6,1-1.1,1c-0.5-0.1-1-0.3-1.5-0.6l-0.5-0.3c-1-0.7-2.3-0.8-3.4-0.4c-0.3,0.1-0.5,0.2-0.8,0.3
			c0.2,0.5,0.4,1,0.6,1.5c0.3-0.1,0.5-0.2,0.8-0.3c0.4-0.1,0.8-0.1,1.3,0c0.4,0.2,0.7,0.4,1.1,0.6c0.7,0.5,1.5,0.8,2.4,0.9
			c1.4,0,2.6-1,2.7-2.3c0.2-1.1,0.8-3.7,1.1-5.5c0,0,0.9,4.3,1.1,5.5c0.2,1.4,1.4,2.4,2.7,2.3c0.9-0.1,1.7-0.4,2.4-0.9
			c0.3-0.2,0.7-0.4,1.1-0.6c0.4-0.1,0.8-0.1,1.3,0c0.3,0.1,0.6,0.2,0.8,0.3c0.3-0.5,0.5-1,0.7-1.5C252,495.2,251.7,495.1,251.5,495"
			/>
	</g>
</g>
<g>
	<path d="M62.1,490.9c0-0.9,0-1.7-0.1-2.4h1.2l0.1,1.3h0c0.5-0.9,1.4-1.4,2.6-1.4c1.8,0,3.1,1.5,3.1,3.7c0,2.6-1.6,3.9-3.3,3.9
		c-1,0-1.8-0.4-2.3-1.2h0v4h-1.3V490.9z M63.5,492.8c0,0.2,0,0.4,0.1,0.5c0.2,0.9,1,1.6,2,1.6c1.4,0,2.2-1.2,2.2-2.8
		c0-1.5-0.8-2.7-2.2-2.7c-0.9,0-1.8,0.7-2,1.7c0,0.2-0.1,0.4-0.1,0.5V492.8z"/>
	<path d="M70.8,490.8c0-0.9,0-1.6-0.1-2.3h1.2l0,1.4H72c0.3-1,1.1-1.6,2-1.6c0.2,0,0.3,0,0.4,0v1.3c-0.1,0-0.3,0-0.5,0
		c-0.9,0-1.6,0.7-1.8,1.7c0,0.2-0.1,0.4-0.1,0.6v3.9h-1.3V490.8z"/>
	<path d="M76.3,492.4c0,1.8,1.2,2.5,2.5,2.5c1,0,1.5-0.2,2-0.4l0.2,1c-0.5,0.2-1.3,0.5-2.4,0.5c-2.3,0-3.6-1.5-3.6-3.7
		c0-2.2,1.3-4,3.4-4c2.4,0,3,2.1,3,3.5c0,0.3,0,0.5,0,0.6H76.3z M80.2,491.4c0-0.8-0.3-2.2-1.9-2.2c-1.3,0-1.9,1.2-2,2.2H80.2z"/>
	<path d="M83,494.4c0.4,0.3,1.1,0.5,1.8,0.5c1,0,1.4-0.5,1.4-1.1c0-0.6-0.4-1-1.4-1.4c-1.3-0.5-1.9-1.2-1.9-2.1c0-1.2,1-2.2,2.5-2.2
		c0.7,0,1.4,0.2,1.8,0.5l-0.3,1c-0.3-0.2-0.8-0.4-1.5-0.4c-0.8,0-1.2,0.5-1.2,1c0,0.6,0.4,0.9,1.4,1.2c1.3,0.5,1.9,1.1,1.9,2.2
		c0,1.3-1,2.2-2.7,2.2c-0.8,0-1.5-0.2-2.1-0.5L83,494.4z"/>
	<path d="M89.9,492.4c0,1.8,1.2,2.5,2.5,2.5c1,0,1.5-0.2,2-0.4l0.2,1c-0.5,0.2-1.3,0.5-2.4,0.5c-2.3,0-3.6-1.5-3.6-3.7
		c0-2.2,1.3-4,3.4-4c2.4,0,3,2.1,3,3.5c0,0.3,0,0.5,0,0.6H89.9z M93.8,491.4c0-0.8-0.3-2.2-1.9-2.2c-1.3,0-1.9,1.2-2,2.2H93.8z"/>
	<path d="M96.8,490.5c0-0.8,0-1.4-0.1-2h1.2l0.1,1.2h0c0.4-0.7,1.2-1.4,2.4-1.4c1,0,2.6,0.6,2.6,3.1v4.4h-1.3v-4.2
		c0-1.2-0.4-2.2-1.7-2.2c-0.9,0-1.6,0.6-1.8,1.4c-0.1,0.2-0.1,0.4-0.1,0.6v4.4h-1.3V490.5z"/>
	<path d="M106.8,486.4v2.1h1.9v1h-1.9v4c0,0.9,0.3,1.4,1,1.4c0.3,0,0.6,0,0.8-0.1l0.1,1c-0.3,0.1-0.7,0.2-1.2,0.2
		c-0.6,0-1.1-0.2-1.4-0.6c-0.4-0.4-0.5-1-0.5-1.9v-4h-1.1v-1h1.1v-1.8L106.8,486.4z"/>
	<path d="M110.8,492.4c0,1.8,1.2,2.5,2.5,2.5c1,0,1.5-0.2,2-0.4l0.2,1c-0.5,0.2-1.3,0.5-2.4,0.5c-2.3,0-3.6-1.5-3.6-3.7
		c0-2.2,1.3-4,3.4-4c2.4,0,3,2.1,3,3.5c0,0.3,0,0.5,0,0.6H110.8z M114.7,491.4c0-0.8-0.3-2.2-1.9-2.2c-1.3,0-1.9,1.2-2,2.2H114.7z"
		/>
	<path d="M124,485v8.9c0,0.7,0,1.4,0.1,1.9h-1.2l-0.1-1.3h0c-0.4,0.8-1.3,1.4-2.5,1.4c-1.8,0-3.1-1.5-3.1-3.7c0-2.4,1.5-3.9,3.3-3.9
		c1.1,0,1.9,0.5,2.2,1.1h0V485H124z M122.7,491.5c0-0.2,0-0.4-0.1-0.6c-0.2-0.8-0.9-1.5-1.9-1.5c-1.4,0-2.2,1.2-2.2,2.8
		c0,1.5,0.7,2.7,2.2,2.7c0.9,0,1.7-0.6,2-1.6c0-0.2,0.1-0.4,0.1-0.6V491.5z"/>
	<path d="M129.4,495.8c0-0.5,0.1-1.2,0.1-1.9V485h1.3v4.6h0c0.5-0.8,1.3-1.3,2.5-1.3c1.8,0,3.1,1.5,3.1,3.7c0,2.6-1.7,3.9-3.3,3.9
		c-1.1,0-1.9-0.4-2.5-1.4h0l-0.1,1.2H129.4z M130.8,492.9c0,0.2,0,0.3,0.1,0.5c0.3,0.9,1,1.6,2,1.6c1.4,0,2.2-1.1,2.2-2.8
		c0-1.5-0.8-2.7-2.2-2.7c-0.9,0-1.8,0.6-2,1.6c0,0.2-0.1,0.3-0.1,0.5V492.9z"/>
	<path d="M138.5,488.5l1.6,4.3c0.2,0.5,0.3,1.1,0.5,1.5h0c0.1-0.4,0.3-1,0.5-1.5l1.5-4.3h1.4l-2,5.2c-1,2.5-1.6,3.8-2.5,4.6
		c-0.7,0.6-1.3,0.8-1.6,0.9l-0.3-1.1c0.3-0.1,0.8-0.3,1.2-0.7c0.4-0.3,0.8-0.8,1.1-1.5c0.1-0.1,0.1-0.2,0.1-0.3s0-0.2-0.1-0.3
		l-2.7-6.8H138.5z"/>
</g>
</svg>
